<svg xmlns="http://www.w3.org/2000/svg" width="1920" height="1080" viewBox="0 0 1920 1080">
  <defs>
    <radialGradient id="redGlow" cx="50%" cy="50%" r="70%" fx="50%" fy="50%">
      <stop offset="0%" stop-color="#990000" />
      <stop offset="100%" stop-color="#330000" />
    </radialGradient>
  </defs>
  <!-- Background -->
  <rect width="1920" height="1080" fill="url(#redGlow)" />
  
  <!-- XLR8 Logo -->
  <text x="960" y="440" font-family="Arial, sans-serif" font-size="300" font-weight="bold" fill="white" text-anchor="middle" stroke="#000" stroke-width="8">XLR8</text>
  
  <!-- Soldier silhouettes -->
  <g fill="#000000" opacity="0.8">
    <!-- Center soldier -->
    <path d="M960,540 L900,700 L1020,700 Z" />
    <circle cx="960" cy="500" r="80" />
    
    <!-- Left soldier -->
    <path d="M700,580 L650,720 L750,720 Z" />
    <circle cx="700" cy="540" r="70" />
    
    <!-- Right soldier -->
    <path d="M1220,580 L1170,720 L1270,720 Z" />
    <circle cx="1220" cy="540" r="70" />
    
    <!-- Far left soldier -->
    <path d="M500,600 L460,720 L540,720 Z" />
    <circle cx="500" cy="570" r="60" />
    
    <!-- Far right soldier -->
    <path d="M1420,600 L1380,720 L1460,720 Z" />
    <circle cx="1420" cy="570" r="60" />
  </g>
  
  <!-- Bullet holes effect -->
  <g fill="none" stroke="white" stroke-width="1">
    <circle cx="300" cy="200" r="20" />
    <circle cx="300" cy="200" r="10" />
    <circle cx="300" cy="200" r="5" />
    
    <circle cx="1600" cy="300" r="15" />
    <circle cx="1600" cy="300" r="7" />
    <circle cx="1600" cy="300" r="3" />
    
    <circle cx="500" cy="400" r="18" />
    <circle cx="500" cy="400" r="9" />
    <circle cx="500" cy="400" r="4" />
    
    <circle cx="1300" cy="200" r="22" />
    <circle cx="1300" cy="200" r="11" />
    <circle cx="1300" cy="200" r="5" />
    
    <circle cx="900" cy="150" r="17" />
    <circle cx="900" cy="150" r="8" />
    <circle cx="900" cy="150" r="4" />
  </g>
</svg>